<svg xmlns="http://www.w3.org/2000/svg" width="430" height="430" style="width:100%;height:100%;transform:translate3d(0,0,0);content-visibility:visible" viewBox="0 0 430 430"><defs><clipPath id="d"><path d="M0 0h430v430H0z"/></clipPath><clipPath id="f"><path d="M0 0h430v430H0z"/></clipPath><clipPath id="e"><path d="M0 0h430v430H0z"/></clipPath><path id="a" style="display:none"/><path id="b" style="display:none"/><path id="c" style="display:none"/><mask id="i" mask-type="alpha"><use xmlns:ns1="http://www.w3.org/1999/xlink" ns1:href="#a"/></mask><mask id="h" mask-type="alpha"><use xmlns:ns2="http://www.w3.org/1999/xlink" ns2:href="#b"/></mask><mask id="g" mask-type="alpha"><use xmlns:ns3="http://www.w3.org/1999/xlink" ns3:href="#c"/></mask></defs><g clip-path="url(#d)"><g clip-path="url(#e)" style="display:block"><path fill="#08A88A" d="M1.33 179.446a3.112 3.112 0 0 1-2.66 0c-184.658-89.551-168.22-224.542-167.863-307.48a2.962 2.962 0 0 1 2.531-2.946c52.191-8.204 154.747-44.661 165.707-48.588a2.665 2.665 0 0 1 1.91 0c10.96 3.927 113.517 40.385 165.708 48.598a2.961 2.961 0 0 1 2.53 2.946c.357 82.928 16.795 217.919-167.863 307.47z" class="secondary" style="display:block" transform="translate(214.999 214.911)"/><g opacity=".5" style="mix-blend-mode:multiply;display:block"><path fill="#08A88A" d="M214.102 35.323c-8.685 3.112-78.658 28.004-132.542 41.543-12.198 3.065-23.572 5.548-33.223 7.065a2.962 2.962 0 0 0-2.531 2.946c-.025 5.844-.131 11.946-.24 18.273-.136 7.896-.277 16.142-.277 24.67-.002 81.63 12.976 189.198 168.438 264.565.396.181.833.271 1.272.271V35.166a2.78 2.78 0 0 0-.897.157z" class="secondary" opacity="1"/></g><g fill="#EBE6EF" style="display:block"><path d="M194.688 285 308.12 171.567 281.553 145l-86.865 86.866-37.121-37.121L131 221.312 194.688 285z" class="tertiary"/><path fill-opacity=".5" d="m-31.858-18.56 63.687 63.688.029-53.164-.029.029-37.12-37.121-26.567 26.568z" class="tertiary" style="mix-blend-mode:multiply" transform="translate(163.06 240.5)"/></g><path fill="none" stroke="#121331" stroke-linecap="round" stroke-linejoin="round" stroke-width="7" d="M194.688 285 308.12 171.567 281.553 145l-86.865 86.866-37.121-37.121L131 221.312 194.688 285z" class="primary" style="display:block"/><g style="display:none"><path class="tertiary"/><path class="tertiary" style="mix-blend-mode:multiply"/></g><path fill="none" class="primary" style="display:none"/><path fill="none" stroke="#121331" stroke-linecap="round" stroke-linejoin="round" stroke-width="7" d="M169.187-130.678C169.187-47.796 187.993 89.527 0 180-187.993 89.527-169.187-47.796-169.187-130.688-114.964-138.485 0-180 0-180s114.964 41.515 169.187 49.322z" class="primary" style="display:block" transform="translate(214.998 215)"/></g><g clip-path="url(#f)" style="display:none"><path class="secondary" style="display:none"/><g mask="url(#g)" style="display:none"><path class="secondary"/><path class="secondary" style="mix-blend-mode:multiply"/></g><path class="secondary" style="display:none"/><g mask="url(#h)" style="display:none"><path class="secondary"/><path class="secondary" style="mix-blend-mode:multiply"/></g><path fill="none" class="primary" style="display:none"/><g style="display:none"><path class="tertiary"/><path class="tertiary" style="mix-blend-mode:multiply"/></g><path fill="none" class="primary" style="display:none"/><path class="secondary" style="display:none"/><g mask="url(#i)" style="display:none"><path class="secondary"/><path class="secondary" style="mix-blend-mode:multiply"/></g><path fill="none" class="primary" style="display:none"/></g></g></svg>